<?xml version="1.0" encoding="UTF-8" standalone="no"?>
<svg
   width="16"
   height="16"
   version="1.1"
   id="svg2"
   sodipodi:docname="input-keyboard-virtual.svg"
   inkscape:version="1.3 (0e150ed6c4, 2023-07-21)"
   xmlns:inkscape="http://www.inkscape.org/namespaces/inkscape"
   xmlns:sodipodi="http://sodipodi.sourceforge.net/DTD/sodipodi-0.dtd"
   xmlns:xlink="http://www.w3.org/1999/xlink"
   xmlns="http://www.w3.org/2000/svg"
   xmlns:svg="http://www.w3.org/2000/svg">
  <defs
     id="defs2">
    <linearGradient
       id="linearGradient2"
       inkscape:collect="always">
      <stop
         style="stop-color:#ff00ff;stop-opacity:1"
         offset="0"
         id="stop2" />
      <stop
         style="stop-color:#ffcc00;stop-opacity:1"
         offset="1"
         id="stop3" />
    </linearGradient>
    <linearGradient
       inkscape:collect="always"
       xlink:href="#linearGradient2"
       id="linearGradient3"
       x1="3"
       y1="6.5"
       x2="13"
       y2="6.5"
       gradientUnits="userSpaceOnUse" />
    <linearGradient
       inkscape:collect="always"
       xlink:href="#linearGradient2"
       id="linearGradient5"
       x1="0"
       y1="8"
       x2="16"
       y2="8"
       gradientUnits="userSpaceOnUse" />
  </defs>
  <sodipodi:namedview
     id="namedview2"
     pagecolor="#ffffff"
     bordercolor="#000000"
     borderopacity="0.25"
     inkscape:showpageshadow="2"
     inkscape:pageopacity="0.0"
     inkscape:pagecheckerboard="0"
     inkscape:deskcolor="#d1d1d1"
     inkscape:zoom="47.9375"
     inkscape:cx="8.0208605"
     inkscape:cy="8.0208605"
     inkscape:window-width="1920"
     inkscape:window-height="994"
     inkscape:window-x="0"
     inkscape:window-y="0"
     inkscape:window-maximized="1"
     inkscape:current-layer="svg2" />
  <style
     id="current-color-scheme"
     type="text/css">.ColorScheme-Text {&#10;            color:#dedede;&#10;        }</style>
  <g
     style="fill:currentColor"
     class="ColorScheme-Text"
     id="g1">
    <path
       d="M3 4v1h1V4zm2 0v1h1V4zm2 0v1h1V4zm2 0v1h1V4zm2 0v1h2V4zM3 6v1h2V6zm3 0v1h1V6zm2 0v1h1V6zm2 0v1h3V6zM3 8v1h1V8zm2 0v1h6V8zm7 0v1h1V8z"
       id="path1"
       style="fill:url(#linearGradient3)" />
  </g>
  <path
     d="m3 1c-1.662 0-3 1.338-3 3v5c0 1.5695 1.198 2.835 2.7305 2.9727l2.2695 3.0273v-3h8c1.662 0 3-1.338 3-3v-5c0-1.662-1.338-3-3-3h-10zm0 1h10c1.108 0 2 0.892 2 2v5c0 1.108-0.892 2-2 2h-8-2c-1.108 0-2-0.892-2-2v-5c0-1.108 0.892-2 2-2z"
     id="path2"
     style="fill:url(#linearGradient5)" />
</svg>
